<svg version="1.0" xmlns="http://www.w3.org/2000/svg" width="346.667" height="346.667" viewBox="0 0 260 260"><path d="M0 130v130h260V0H0v130zm58.7-47c5.2 9.6 12.3 23 15.7 29.7l6.2 12.3 2.8-5.8c1.5-3.1 8.7-16.6 15.9-30L112.4 65h16.8l-2 3.2c-1.1 1.8-10.6 18.4-21.1 37L87 138.8v55.3l-7.2-.3-7.3-.3-.5-28-.5-28-3.9-7c-7.6-13.8-32.4-59.1-34-62.3l-1.7-3.3 8.7.3 8.6.3L58.7 83zm136-16.5c13.6 4.1 22.7 20.7 20.2 36.9-1.2 7.4-3.9 12.6-8.9 17.5-4.3 4.2-4.8 5.1-2.6 5.1.8 0 3.9 2.3 7 5.1 7.6 7 10 13.1 9.9 25.9-.1 12.8-2.6 19.4-10.2 27-8.7 8.7-11.2 9.3-42.8 9.8l-26.3.4V65h24.3c18.7 0 25.5.3 29.4 1.5z"/><path d="M155 99.5v19.8l16.8-.5c16.8-.5 20.8-1.3 24.8-5.2 4.9-5 6-17.2 2.1-24.6-3.8-7.2-6.9-8.2-26.8-8.8l-16.9-.5v19.8zm0 56.4v22.3l18.8-.4c15.5-.2 19.2-.6 21.9-2 14.2-7.8 13.1-33.3-1.7-39.6-2.5-1.1-8.7-1.6-21.2-2l-17.8-.5v22.2z"/></svg>