<svg width="80" height="80" fill="none" xmlns="http://www.w3.org/2000/svg"><path d="M45.458 1.316c1.001-1.163 2.885-.811 3.4.634l5.112 14.366a2 2 0 002.032 1.323l15.206-1.132c1.53-.114 2.614 1.467 1.955 2.853l-6.542 13.773a2 2 0 00.5 2.373l11.553 9.952c1.163 1.001.811 2.885-.634 3.4L63.674 53.97a2 2 0 00-1.323 2.033l1.132 15.206c.114 1.53-1.467 2.613-2.853 1.954l-13.773-6.542a2 2 0 00-2.373.501l-9.952 11.553c-1.001 1.162-2.885.81-3.4-.635L26.02 63.675a2 2 0 00-2.033-1.324L8.782 63.483c-1.53.114-2.614-1.467-1.955-2.853l6.542-13.773a2 2 0 00-.501-2.373L1.315 34.532c-1.162-1.001-.81-2.885.635-3.4l14.365-5.112a2 2 0 001.324-2.032L16.507 8.782c-.114-1.53 1.467-2.614 2.853-1.955l13.773 6.542a2 2 0 002.373-.5l9.952-11.553z"/></svg>