<svg width="57" height="57" fill="none" xmlns="http://www.w3.org/2000/svg"><path d="M51.981 24.481c-7.717-.004-15.434-.002-23.152 0 .002 3.2-.003 6.401.002 9.6h13.407c-.517 3.068-2.34 5.873-4.925 7.6-1.625 1.093-3.492 1.802-5.417 2.139-1.937.33-3.94.373-5.872-.018a14.452 14.452 0 01-5.477-2.365 15.287 15.287 0 01-5.639-7.555c-1.048-3.079-1.056-6.505.005-9.58a15.266 15.266 0 013.571-5.8c1.985-2.033 4.566-3.486 7.347-4.082a14.57 14.57 0 017.224.294 13.333 13.333 0 015.304 3.116c1.513-1.503 3.017-3.016 4.527-4.523.792-.81 1.624-1.586 2.39-2.42-2.292-2.121-4.98-3.827-7.916-4.905-5.287-1.946-11.25-1.987-16.573-.145C14.79 7.891 9.682 12.377 6.85 18.046a24.478 24.478 0 00-2.138 6.184c-1.088 5.343-.33 11.04 2.135 15.908a24.788 24.788 0 006.684 8.215 24.487 24.487 0 008.94 4.508c4.098 1.099 8.461 1.074 12.586.135 3.729-.858 7.256-2.64 10.073-5.24 2.977-2.736 5.1-6.34 6.225-10.214 1.226-4.225 1.395-8.736.626-13.06z" fill="#fff"/></svg>