<svg width="50" height="50" fill="none" xmlns="http://www.w3.org/2000/svg"><path d="M25 0c13.805 0 25 11.195 25 25S38.805 50 25 50 0 38.805 0 25 11.195 0 25 0z" fill="#1DA1F2"/><path d="M19.2 37.7c11.79 0 18.245-9.77 18.245-18.245 0-.275 0-.555-.02-.83 1.255-.91 2.34-2.03 3.2-3.32-1.17.52-2.41.86-3.68 1.01 1.34-.8 2.34-2.06 2.82-3.545a12.829 12.829 0 01-4.07 1.555 6.42 6.42 0 00-9.07-.28 6.42 6.42 0 00-1.855 6.125 18.213 18.213 0 01-13.215-6.7 6.418 6.418 0 001.985 8.56 6.379 6.379 0 01-2.91-.8v.08c0 3.05 2.15 5.68 5.145 6.285a6.437 6.437 0 01-2.895.11 6.426 6.426 0 005.99 4.455 12.846 12.846 0 01-9.485 2.655 18.063 18.063 0 009.815 2.88" fill="#fff"/></svg>