<svg width="50" height="50" fill="none" xmlns="http://www.w3.org/2000/svg"><path fill-rule="evenodd" clip-rule="evenodd" d="M25 50c13.807 0 25-11.193 25-25S38.807 0 25 0 0 11.193 0 25s11.193 25 25 25z" fill="#000"/><path fill-rule="evenodd" clip-rule="evenodd" d="M34.764 24.038H15.236c-3.105 0-5.62 2.291-5.62 5.376v5.383c0 3.085 2.515 5.588 5.62 5.588h19.528c3.103 0 5.62-2.502 5.62-5.588v-5.34c0-3.085-2.517-5.419-5.62-5.419zm-15.699 4.378h-1.883v8.702h-1.82v-8.702h-1.883v-1.48h5.586v1.48zm4.823 9.074h-1.614v-.823c-.3.304-.609.536-.933.693a2.06 2.06 0 01-.938.241c-.374 0-.652-.111-.844-.336-.187-.225-.284-.557-.284-1.007v-6.28h1.615v5.763c0 .177.035.306.1.384.07.082.18.12.332.12.117 0 .269-.052.45-.158.183-.106.35-.24.501-.404v-5.706h1.615v7.513zm6.766-1.758c0 .53-.126.938-.38 1.223-.251.285-.619.631-1.097.631-.318 0-1.052-.053-1.298-.163a2.046 2.046 0 01-.69-.509v.575h-1.634V27.102h1.633v3.486c.219-.228.45-.403.692-.521.247-.121.948-.18 1.198-.18.512 0 .902-.047 1.171.273.27.32.405.79.405 1.405v4.168zm5.873-1.942h-3.09v1.416c0 .395.052.67.158.823.108.154.29.228.548.228.268 0 .455-.065.562-.194.105-.131.16-.415.16-.858v-.341h1.662v.385c0 .77-.2 1.35-.609 1.742-.402.387-1.007.58-1.812.58-.724 0-1.294-.205-1.71-.619-.413-.41-.623-.979-.623-1.703v-3.375c0-.649.229-1.183.687-1.592.457-.41 1.043-.614 1.768-.614.74 0 1.307.19 1.704.569.397.38.596.926.596 1.638v1.915h-.001zm-2.369-2.809c-.258 0-.44.068-.553.208-.114.132-.167.358-.167.673v.76h1.427v-.76c0-.315-.057-.541-.17-.673-.11-.14-.291-.208-.537-.208zm-6.294.099a.838.838 0 00-.343.072 1.186 1.186 0 00-.332.23v4.68c.13.121.258.214.383.268a1 1 0 00.389.08c.199 0 .796-.053.89-.16.091-.107.139-.277.139-.517v-3.88c0-.256-.055-.447-.17-.579-.117-.129-.739-.194-.956-.194zm2.028-8.908c.329 0 .668-.095 1.017-.277a3.71 3.71 0 001.008-.808v.958h1.753v-8.659h-1.753v6.574a2.382 2.382 0 01-.54.465c-.197.122-.36.182-.49.182-.163 0-.284-.046-.355-.139-.073-.091-.113-.239-.113-.442v-6.64h-1.75v7.238c0 .516.103.902.306 1.157.207.26.51.391.917.391zm-5.158.093c.796 0 1.421-.212 1.877-.633.453-.424.68-1.001.68-1.743v-4.474c0-.659-.233-1.202-.693-1.62-.465-.417-1.059-.627-1.784-.627-.796 0-1.432.198-1.903.596-.471.397-.707.929-.707 1.602v4.49c0 .735.23 1.318.69 1.755.46.435 1.073.654 1.84.654zm-.727-6.965c0-.189.068-.34.2-.46a.769.769 0 01.521-.173c.233 0 .42.057.563.174a.57.57 0 01.214.459v4.718c0 .231-.07.415-.211.548-.14.133-.328.198-.566.198-.231 0-.41-.063-.534-.196-.124-.13-.187-.312-.187-.55V15.3zm-6.215 6.746h1.973v-5.56l2.296-6.87h-2.005l-1.22 4.692h-.125l-1.28-4.693h-1.988l2.35 7.089v5.342z" fill="#fff"/></svg>